<svg xmlns="http://www.w3.org/2000/svg" viewBox="0 0 32 32">
  <circle cx="16" cy="16" r="15.5" fill="#080c14"/>
  <circle cx="16" cy="16" r="14" fill="none" stroke="#1e3a5f" stroke-width="1"/>
  <g fill="#2a6dd9" opacity="0.85">
    <polygon points="16,4 19,10 13,10"/>
    <polygon points="28,16 22,13 22,19"/>
    <polygon points="16,28 13,22 19,22"/>
    <polygon points="4,16 10,19 10,13"/>
    <polygon points="25.1,6.9 21,12 26.5,14.5"/>
    <polygon points="6.9,6.9 11,12 5.5,14.5"/>
    <polygon points="25.1,25.1 21,20 26.5,17.5"/>
    <polygon points="6.9,25.1 11,20 5.5,17.5"/>
  </g>
  <circle cx="16" cy="16" r="9" fill="none" stroke="#2a6dd9" stroke-width="1.2"/>
  <circle cx="16" cy="16" r="5.5" fill="none" stroke="#4fc3f7" stroke-width="1"/>
  <circle cx="16" cy="16" r="3.5" fill="#4fc3f7" opacity="0.3"/>
  <circle cx="16" cy="16" r="2" fill="#7dd8f8"/>
  <circle cx="16" cy="16" r="1" fill="#e8f8ff"/>
</svg>
